<?xml version="1.0" standalone="no"?>
<!DOCTYPE svg PUBLIC "-//W3C//DTD SVG 20010904//EN"
 "http://www.w3.org/TR/2001/REC-SVG-20010904/DTD/svg10.dtd">
<svg version="1.0" xmlns="http://www.w3.org/2000/svg"
 width="512.000000pt" height="512.000000pt" viewBox="0 0 512.000000 512.000000"
 preserveAspectRatio="xMidYMid meet">

<g transform="translate(0.000000,512.000000) scale(0.100000,-0.100000)"
fill="#000000" stroke="none">
<path d="M221 4816 c-8 -9 -11 -85 -9 -252 l3 -239 933 -3 933 -2 52 48 c29
26 69 62 89 79 20 17 34 34 31 37 -4 3 -427 6 -940 6 l-934 0 3 83 3 82 83 3
82 3 0 78 c0 63 -3 80 -16 85 -9 3 -80 6 -159 6 -109 0 -145 -3 -154 -14z"/>
<path d="M731 4821 c-9 -6 -13 -30 -13 -81 0 -39 2 -73 4 -75 7 -7 145 -8 156
-1 16 10 16 138 0 154 -14 14 -126 16 -147 3z"/>
<path d="M1067 4823 c-7 -7 -10 -157 -3 -164 2 -2 38 -3 80 -1 l76 4 0 78 c0
62 -3 79 -16 84 -21 8 -129 8 -137 -1z"/>
<path d="M1403 4824 c-9 -4 -13 -31 -13 -85 l0 -79 85 0 86 0 -3 83 -3 82 -70
2 c-38 1 -76 -1 -82 -3z"/>
<path d="M1740 4739 c0 -79 2 -90 16 -85 9 3 45 6 80 6 l64 0 0 79 c0 91 0 91
-96 91 l-64 0 0 -91z"/>
<path d="M2083 4823 c-9 -3 -13 -30 -13 -84 l0 -80 83 3 82 3 3 68 c4 89 -4
97 -82 96 -33 0 -67 -3 -73 -6z"/>
<path d="M2417 4823 c-10 -9 -9 -161 1 -167 16 -10 83 31 142 87 33 31 64 57
70 57 5 0 10 7 10 15 0 12 -19 15 -108 15 -60 0 -112 -3 -115 -7z"/>
<path d="M2858 4777 c-26 -23 -74 -66 -108 -95 -33 -29 -60 -57 -60 -62 0 -5
22 -32 49 -62 47 -51 49 -52 75 -39 14 8 27 12 28 10 19 -30 28 -51 28 -63 0
-7 7 -27 15 -42 23 -44 19 -59 -27 -97 -24 -19 -56 -48 -73 -63 -16 -16 -42
-38 -56 -49 -25 -19 -131 -113 -234 -206 -27 -25 -66 -58 -86 -75 -36 -29
-350 -303 -359 -314 -3 -3 -36 -32 -75 -65 -126 -108 -138 -119 -199 -176 -34
-30 -77 -68 -97 -85 -20 -16 -128 -110 -240 -208 -112 -98 -233 -204 -269
-235 -58 -51 -167 -148 -180 -161 -23 -24 -110 -90 -118 -90 -10 0 -13 15 -28
128 -6 46 -4 56 15 76 25 27 28 21 -47 107 -39 45 -42 44 -114 -25 -52 -50
-50 -41 -28 -156 5 -25 16 -85 25 -135 9 -49 20 -106 25 -125 4 -19 14 -70 21
-112 7 -43 17 -78 22 -78 10 0 94 69 187 155 31 27 96 84 145 127 50 42 99 84
110 95 11 10 92 81 180 158 88 77 165 144 172 150 87 78 472 414 543 475 56
48 165 145 180 160 3 3 21 18 40 34 19 16 64 55 100 87 98 87 338 297 410 359
36 30 87 76 115 101 27 25 61 55 75 66 14 12 38 32 54 46 l30 24 -18 49 c-20
56 -28 76 -46 119 -28 67 -80 207 -80 217 0 8 -49 118 -53 118 -1 0 -23 -19
-49 -43z"/>
<path d="M2495 4459 c-27 -22 -54 -44 -59 -49 -9 -9 67 -106 96 -121 13 -7 29
2 74 44 l58 54 -49 56 c-27 32 -54 57 -59 57 -6 -1 -33 -19 -61 -41z"/>
<path d="M3683 4287 c-5 -12 -22 -71 -37 -132 -15 -60 -31 -126 -36 -145 -18
-71 -28 -119 -59 -290 -16 -88 -39 -320 -52 -521 -11 -175 -5 -391 17 -604 13
-126 16 -154 25 -215 12 -88 31 -193 57 -320 16 -79 79 -312 110 -405 16 -49
40 -124 52 -165 12 -41 35 -113 50 -160 15 -47 36 -112 45 -145 10 -33 30 -98
45 -145 15 -47 35 -112 45 -145 9 -33 25 -85 35 -115 55 -172 79 -262 84 -322
13 -165 138 -311 315 -367 44 -14 178 -14 222 0 88 29 172 80 213 132 15 17
31 38 37 45 20 25 56 118 69 180 10 50 10 75 1 120 -39 185 -135 298 -303 357
-47 16 -207 21 -236 6 -22 -11 -81 -32 -107 -38 -17 -4 -24 4 -38 44 -35 97
-21 143 75 252 21 24 41 55 45 68 8 33 -3 143 -22 223 -8 36 -20 88 -26 115
-6 28 -15 66 -20 85 -17 73 -28 119 -54 240 -15 69 -31 141 -36 160 -8 34 -23
101 -39 170 -4 19 -16 71 -25 115 -19 92 -33 153 -47 210 -5 22 -12 54 -14 70
-3 17 -9 39 -14 50 -5 11 -11 36 -14 55 -4 32 -17 92 -47 220 -5 25 -14 65
-19 90 -6 25 -14 63 -19 85 -5 22 -19 83 -30 135 -11 52 -26 115 -32 140 -5
25 -14 63 -19 85 -5 22 -18 78 -29 125 -11 47 -27 119 -36 160 -8 41 -20 94
-25 118 -6 23 -15 63 -21 90 -5 26 -14 63 -19 82 -21 87 -40 180 -40 198 0 30
-15 35 -27 9z m35 -827 c6 -25 18 -79 27 -120 9 -41 21 -95 26 -120 6 -25 15
-65 20 -90 6 -25 14 -61 19 -80 10 -39 21 -90 45 -200 8 -41 20 -95 26 -120 6
-25 15 -65 20 -90 6 -25 14 -61 19 -80 6 -19 19 -80 31 -135 30 -142 40 -185
51 -230 5 -22 13 -58 17 -80 5 -22 21 -94 36 -160 15 -66 30 -133 32 -150 2
-16 8 -39 13 -50 5 -11 11 -36 14 -55 3 -19 10 -53 15 -75 5 -22 21 -92 34
-155 14 -63 28 -123 32 -132 5 -12 -9 -35 -45 -79 -28 -34 -59 -79 -68 -100
-9 -22 -20 -39 -24 -39 -4 0 -19 39 -33 87 -15 49 -31 96 -36 105 -5 10 -9 25
-9 33 0 8 -4 23 -9 33 -5 9 -21 60 -36 112 -27 95 -40 138 -55 175 -15 38 -77
256 -102 360 -88 370 -126 786 -107 1180 15 320 22 357 47 255z m840 -2689 c9
-5 33 -16 52 -25 41 -17 90 -66 119 -119 17 -30 21 -55 21 -126 0 -49 -3 -91
-7 -93 -5 -1 -18 -21 -29 -43 -13 -23 -45 -56 -78 -80 -54 -37 -60 -39 -134
-40 -123 0 -201 46 -250 146 -25 52 -30 146 -10 211 14 48 78 123 121 142 18
7 43 18 57 24 31 13 114 15 138 3z"/>
<path d="M2231 4230 c-29 -27 -52 -53 -50 -58 6 -15 99 -112 107 -112 4 0 33
23 64 51 l58 51 -52 59 c-29 32 -57 59 -63 59 -5 -1 -34 -23 -64 -50z"/>
<path d="M4805 4019 c-22 -33 -44 -68 -50 -77 -5 -9 -13 -19 -16 -22 -4 -3
-22 -28 -40 -56 -61 -92 -260 -386 -334 -494 -40 -58 -104 -151 -142 -208
l-71 -102 15 -63 c27 -118 36 -147 42 -147 4 0 16 14 26 31 22 34 29 45 95
140 25 36 85 125 133 197 49 73 91 132 94 132 10 0 -12 -97 -37 -165 -4 -11
-20 -60 -36 -110 -40 -127 -120 -326 -187 -463 -29 -60 -30 -64 -17 -120 6
-31 16 -70 21 -86 5 -16 9 -42 9 -57 0 -65 31 -26 115 149 48 97 90 186 95
197 4 11 15 36 24 57 9 20 16 40 16 45 0 5 9 28 20 51 11 22 20 47 20 55 0 7
4 17 8 22 5 6 21 51 36 100 15 50 31 99 36 110 4 11 13 40 20 65 7 25 16 56
21 70 7 21 33 133 69 295 5 22 14 72 20 110 6 39 15 93 20 120 12 66 30 225
30 259 0 14 -3 26 -7 26 -5 0 -26 -27 -48 -61z"/>
<path d="M1978 4007 l-56 -52 20 -25 c11 -14 35 -42 54 -63 l35 -37 60 52 c32
29 59 57 59 63 -1 13 -96 115 -107 115 -4 -1 -33 -24 -65 -53z"/>
<path d="M1720 3782 l-54 -49 54 -61 c30 -34 56 -62 57 -62 2 0 17 12 35 28
17 15 45 39 62 54 l31 26 -50 55 c-28 30 -57 55 -65 56 -8 0 -40 -21 -70 -47z"/>
<path d="M1473 3564 c-29 -25 -53 -50 -53 -56 0 -14 92 -118 104 -118 11 0
116 97 116 107 0 11 -93 113 -104 113 -6 0 -35 -21 -63 -46z"/>
<path d="M1230 3349 c-25 -22 -51 -44 -59 -49 -11 -6 -3 -21 35 -68 27 -33 56
-61 64 -61 8 0 39 22 68 50 58 57 59 51 -10 128 -21 22 -41 41 -45 41 -5 0
-28 -19 -53 -41z"/>
<path d="M964 3119 c-30 -29 -54 -55 -54 -58 0 -3 24 -32 53 -64 l52 -58 50
45 c28 25 53 46 58 46 4 0 7 8 7 18 -1 16 -92 122 -105 122 -4 0 -31 -23 -61
-51z"/>
<path d="M1309 2522 c-65 -55 -77 -82 -38 -82 11 0 27 -4 37 -9 9 -5 40 -17
67 -26 28 -9 61 -22 73 -28 28 -13 35 -4 64 78 22 63 22 71 1 78 -10 4 -43 15
-73 27 -30 11 -57 20 -60 19 -3 0 -35 -26 -71 -57z"/>
<path d="M1685 2438 c-3 -13 -10 -32 -14 -43 -35 -84 -36 -81 29 -104 19 -7
45 -18 57 -23 33 -16 47 -5 66 54 22 69 22 94 0 101 -10 4 -36 13 -58 21 -55
21 -73 20 -80 -6z"/>
<path d="M2010 2347 c0 -1 -11 -33 -25 -71 -14 -37 -23 -71 -20 -75 2 -4 23
-14 47 -21 24 -7 47 -17 53 -22 22 -19 53 -8 65 25 6 17 19 48 27 69 17 40 12
58 -17 58 -10 0 -22 5 -25 10 -3 6 -17 10 -30 10 -13 0 -27 5 -30 10 -5 8 -45
15 -45 7z"/>
<path d="M1080 2324 c-1 -5 -30 -31 -65 -59 -35 -27 -64 -54 -64 -58 -1 -4 7
-10 17 -13 9 -3 25 -10 34 -15 10 -5 24 -9 31 -9 7 0 32 -9 55 -20 22 -11 47
-20 55 -20 7 0 17 -4 23 -8 5 -5 38 -17 74 -27 36 -10 70 -22 75 -26 6 -4 75
-29 155 -57 80 -28 203 -71 275 -96 144 -51 125 -52 253 6 34 15 67 28 72 28
6 0 10 6 10 13 0 7 -30 23 -67 36 -38 12 -77 26 -88 31 -11 5 -47 18 -80 29
-70 22 -201 69 -230 81 -11 4 -56 20 -100 35 -44 15 -89 30 -100 35 -11 4 -36
13 -55 20 -19 7 -44 16 -55 21 -11 4 -58 21 -105 37 -47 17 -93 33 -102 37
-10 4 -18 3 -18 -1z"/>
<path d="M2327 2233 c-4 -3 -7 -16 -7 -28 0 -12 -3 -25 -7 -29 -11 -11 -32
-79 -27 -88 9 -14 50 -9 100 13 113 49 134 60 134 68 0 4 -19 14 -42 21 -24 7
-47 17 -52 22 -6 4 -20 8 -32 8 -13 0 -26 5 -29 10 -7 11 -28 13 -38 3z"/>
<path d="M2720 2067 c-14 -6 -77 -35 -140 -65 -63 -29 -124 -57 -135 -62 -86
-38 -235 -110 -235 -115 0 -3 5 -13 10 -23 6 -9 19 -38 30 -64 23 -57 36 -59
111 -20 30 15 86 41 124 56 39 16 74 33 79 38 6 4 18 8 28 8 15 0 18 -9 18
-54 0 -29 3 -67 6 -84 l6 -31 -127 -60 c-70 -34 -129 -61 -131 -61 -3 0 -52
-22 -109 -50 -57 -27 -106 -50 -110 -50 -3 0 -61 -27 -130 -60 -69 -33 -127
-60 -131 -60 -3 0 -49 -21 -102 -46 -53 -25 -106 -49 -117 -54 -11 -5 -73 -34
-137 -64 -65 -31 -121 -56 -124 -56 -3 0 -43 -17 -87 -39 -99 -47 -217 -102
-272 -126 -22 -9 -85 -39 -140 -66 -56 -27 -104 -49 -107 -49 -4 0 -53 -22
-110 -49 -95 -46 -176 -81 -184 -81 -2 0 -10 15 -18 32 -31 69 -46 110 -41
118 3 5 34 22 70 39 36 16 65 34 65 40 0 17 -60 141 -69 141 -4 0 -34 -13 -67
-29 -32 -15 -81 -38 -109 -51 -131 -58 -128 -55 -97 -112 10 -18 24 -49 32
-68 7 -19 32 -75 56 -125 23 -49 54 -116 68 -147 14 -32 28 -58 32 -58 3 0 35
14 71 30 35 17 66 30 68 30 2 0 56 25 120 55 63 30 118 55 121 55 3 0 47 20
97 44 158 76 280 132 337 157 30 13 79 36 109 51 29 15 57 28 62 28 4 0 64 27
132 60 69 33 127 60 130 60 3 0 58 25 122 55 63 30 117 55 120 55 2 0 56 25
120 55 63 30 117 55 119 55 5 0 175 79 281 131 45 21 84 39 88 39 4 0 58 25
119 55 62 30 118 55 125 55 6 0 15 5 18 11 12 18 -17 539 -29 538 -6 0 -22 -5
-36 -12z"/>
<path d="M3320 1835 c-58 -86 -112 -166 -120 -179 -8 -12 -30 -44 -47 -71 -40
-60 -44 -120 -11 -192 15 -33 22 -69 22 -114 1 -64 -1 -68 -39 -112 -22 -25
-46 -46 -52 -46 -7 -1 -33 19 -59 43 -57 55 -133 93 -222 112 -176 38 -379
-69 -464 -245 -31 -62 -33 -72 -33 -177 0 -62 5 -122 11 -135 7 -13 20 -43 29
-67 26 -61 127 -159 200 -192 87 -40 170 -54 248 -40 135 25 265 120 322 235
14 30 51 86 81 123 30 37 60 74 67 82 72 91 95 119 189 235 41 50 82 102 93
116 11 15 37 47 58 72 l38 45 -27 91 c-15 50 -31 91 -34 91 -4 0 -32 -30 -61
-66 -30 -36 -70 -85 -89 -109 -19 -23 -42 -52 -50 -64 -22 -31 -30 -26 -30 20
0 23 -12 76 -27 119 l-27 78 60 88 c33 49 80 117 103 152 41 60 43 66 33 100
-18 65 -31 116 -34 136 -2 11 -8 21 -13 23 -6 2 -58 -67 -115 -152z m-483
-746 c52 -29 95 -72 121 -120 31 -58 31 -182 1 -236 -39 -69 -60 -93 -107
-120 -41 -25 -57 -28 -132 -28 -74 0 -91 3 -130 26 -89 53 -134 136 -132 245
1 99 50 179 142 232 51 30 184 30 237 1z"/>
<path d="M1962 1718 c-35 -17 -61 -33 -60 -37 2 -3 16 -34 32 -68 20 -43 35
-63 47 -63 15 0 121 43 138 56 2 2 -11 35 -30 74 -20 44 -38 70 -48 70 -9 -1
-44 -15 -79 -32z"/>
<path d="M1672 1585 c-35 -18 -65 -35 -69 -38 -6 -6 57 -147 65 -147 13 0 142
65 142 72 0 13 -64 148 -69 147 -3 -1 -34 -16 -69 -34z"/>
<path d="M1353 1439 l-63 -29 19 -47 c30 -76 44 -103 52 -103 4 0 37 14 73 30
45 21 66 36 65 48 -1 29 -53 127 -69 129 -8 1 -43 -12 -77 -28z"/>
<path d="M1065 1307 c-65 -29 -75 -35 -75 -52 0 -18 53 -135 62 -135 4 0 38
14 77 31 l70 32 -17 41 c-22 56 -46 99 -57 102 -6 2 -33 -7 -60 -19z"/>
<path d="M780 1176 c-14 -7 -42 -21 -62 -30 -21 -8 -38 -20 -38 -26 0 -6 11
-33 25 -62 14 -28 25 -58 25 -65 0 -7 6 -13 14 -13 21 0 146 61 146 71 0 5
-11 30 -24 57 -14 26 -27 55 -30 65 -6 20 -22 21 -56 3z"/>
</g>
</svg>
