<?xml version="1.0" standalone="no"?>
<!DOCTYPE svg PUBLIC "-//W3C//DTD SVG 20010904//EN"
 "http://www.w3.org/TR/2001/REC-SVG-20010904/DTD/svg10.dtd">
<svg version="1.0" xmlns="http://www.w3.org/2000/svg"
 width="512.000000pt" height="512.000000pt" viewBox="0 0 512.000000 512.000000"
 preserveAspectRatio="xMidYMid meet">

<g transform="translate(0.000000,512.000000) scale(0.100000,-0.100000)"
fill="#000000" stroke="none">
<path d="M2660 4860 c-66 -11 -146 -33 -156 -43 -4 -4 -16 -7 -26 -7 -26 0
-153 -65 -223 -115 -195 -139 -311 -315 -385 -580 -15 -54 -21 -228 -11 -320
21 -187 61 -290 176 -455 141 -201 365 -338 630 -385 187 -34 362 -7 560 84
103 48 168 95 260 185 112 111 161 187 235 361 42 101 64 283 49 405 -19 154
-21 165 -30 174 -5 6 -9 20 -9 32 0 12 -6 35 -14 51 -8 15 -29 59 -46 96 -18
37 -37 74 -44 80 -6 7 -18 25 -26 40 -47 82 -261 265 -360 308 -14 6 -38 16
-55 24 -102 47 -190 66 -330 70 -77 2 -165 0 -195 -5z"/>
<path d="M62 3278 c-20 -20 -13 -69 28 -193 22 -66 44 -129 49 -140 5 -11 21
-60 36 -110 14 -49 30 -99 34 -110 5 -11 21 -58 36 -105 15 -47 31 -94 35
-105 5 -11 20 -58 35 -105 14 -47 30 -94 35 -105 5 -11 16 -45 25 -75 9 -30
20 -64 24 -75 5 -11 21 -58 36 -105 15 -47 30 -94 35 -105 5 -11 20 -58 35
-105 15 -47 31 -94 35 -105 5 -11 17 -48 29 -82 17 -56 18 -65 5 -78 -9 -8
-22 -15 -30 -15 -7 0 -35 -13 -62 -30 -71 -44 -92 -89 -92 -202 0 -50 5 -109
11 -132 68 -264 106 -336 198 -377 52 -23 88 -24 164 -4 32 8 69 15 82 15 13
0 27 5 30 10 3 6 15 10 25 10 49 0 180 98 211 158 8 15 16 29 19 32 3 3 14 25
25 50 25 56 28 215 6 270 -20 47 -83 133 -118 159 -15 11 -32 24 -38 28 -47
36 -143 63 -223 63 l-77 0 -174 528 c-95 290 -177 536 -181 547 -5 11 -21 58
-36 105 -15 47 -38 114 -50 150 -13 36 -24 71 -24 78 0 7 -4 20 -9 30 -12 24
-52 142 -59 172 -10 46 -32 70 -66 70 -18 0 -37 -5 -44 -12z"/>
<path d="M2535 2684 c-116 -15 -223 -32 -280 -44 -104 -23 -182 -43 -197 -51
-10 -5 -25 -9 -35 -9 -19 0 -159 -45 -185 -60 -10 -6 -27 -10 -37 -10 -11 0
-22 -4 -25 -9 -3 -5 -18 -12 -33 -16 -16 -3 -68 -26 -118 -49 -49 -24 -107
-51 -127 -60 -20 -9 -40 -21 -43 -26 -3 -6 -15 -10 -26 -10 -10 0 -19 -3 -19
-7 0 -5 -27 -21 -60 -38 -33 -16 -60 -33 -60 -37 0 -4 -5 -8 -12 -8 -21 0
-205 -128 -251 -176 -25 -25 -53 -61 -62 -80 -8 -18 -20 -36 -25 -39 -6 -3
-10 -15 -10 -26 0 -10 -4 -19 -8 -19 -10 0 -31 -87 -34 -143 -2 -39 11 -57 44
-57 9 0 46 -14 83 -31 72 -33 198 -149 229 -210 80 -157 78 -332 -6 -488 -30
-57 -102 -137 -151 -168 -24 -15 -36 -28 -30 -34 5 -5 311 -8 759 -7 l749 3 5
690 5 690 954 5 c1072 6 980 -3 846 82 -141 90 -299 172 -445 230 -14 6 -38
16 -55 23 -33 15 -83 32 -195 65 -41 12 -104 30 -140 41 -111 32 -171 44 -410
78 -169 24 -432 27 -595 5z"/>
<path d="M2755 1958 c-3 -13 -4 -383 -3 -823 l3 -800 412 -3 413 -2 25 -40
c13 -21 33 -44 44 -50 12 -6 97 -10 208 -10 l189 0 32 33 c18 18 32 41 32 50
0 15 33 17 423 19 l422 3 2 809 c2 583 0 813 -8 823 -10 11 -201 13 -1100 13
l-1089 0 -5 -22z m1024 -182 c8 -9 10 -183 9 -632 l-3 -619 -417 -3 -418 -2 0
628 c0 346 3 632 7 635 3 4 187 7 408 7 328 0 405 -3 414 -14z m969 1 c12 -14
18 -1211 6 -1241 -6 -14 -46 -16 -420 -16 l-414 0 0 628 c0 346 3 632 7 635 3
4 187 7 408 7 318 0 405 -3 413 -13z"/>
<path d="M4110 1415 c0 -42 2 -44 33 -50 17 -3 118 -5 222 -3 l190 3 3 48 3
47 -225 0 -226 0 0 -45z"/>
<path d="M4114 1256 c-3 -8 -4 -29 -2 -48 l3 -33 220 0 220 0 0 45 0 45 -218
3 c-181 2 -218 0 -223 -12z"/>
<path d="M4114 1056 c-3 -8 -4 -29 -2 -48 l3 -33 150 0 150 0 0 45 0 45 -148
3 c-120 2 -148 0 -153 -12z"/>
</g>
</svg>
